<svg id="Group_8978" data-name="Group 8978" xmlns="http://www.w3.org/2000/svg" width="47.362" height="41.356"><defs><clipPath id="clip-path"><path id="Rectangle_3466" data-name="Rectangle 3466" d="M0 0h47.362v41.356H0z" fill="none"/></clipPath><style>.cls-2,.cls-3{fill:none;stroke:#3daee3;stroke-linecap:round;stroke-linejoin:round}.cls-3{stroke:#fff}.cls-4{clip-path:url(#clip-path)}</style></defs><path id="Line_988" data-name="Line 988" class="cls-2" transform="translate(39.601 3.885)" d="M0 0v27.823"/><path id="Line_989" data-name="Line 989" class="cls-3" transform="translate(43.133 7.385)" d="M0 0v20.823"/><g id="Group_8973" data-name="Group 8973"><g id="Group_8972" data-name="Group 8972" class="cls-4"><path id="Line_990" data-name="Line 990" class="cls-2" transform="translate(46.788 14.241)" d="M0 0v7.111"/></g></g><path id="Line_991" data-name="Line 991" class="cls-2" transform="translate(7.762 3.885)" d="M0 0v27.823"/><path id="Line_992" data-name="Line 992" class="cls-3" transform="translate(4.229 7.385)" d="M0 0v20.823"/><g id="Group_8975" data-name="Group 8975"><g id="Group_8974" data-name="Group 8974" class="cls-4"><path id="Line_993" data-name="Line 993" class="cls-2" transform="translate(.574 14.241)" d="M0 0v7.111"/></g></g><path id="Line_994" data-name="Line 994" class="cls-2" transform="translate(27.595 9.19)" d="M0 0h3.914"/><path id="Line_995" data-name="Line 995" class="cls-2" transform="translate(27.595 13.02)" d="M0 0h3.914"/><path id="Line_996" data-name="Line 996" class="cls-2" transform="translate(27.595 16.849)" d="M0 0h3.914"/><path id="Line_997" data-name="Line 997" class="cls-2" transform="translate(27.595 20.678)" d="M0 0h3.914"/><path id="Line_998" data-name="Line 998" class="cls-2" transform="translate(15.854 9.19)" d="M0 0h3.914"/><path id="Line_999" data-name="Line 999" class="cls-2" transform="translate(15.854 13.02)" d="M0 0h3.914"/><path id="Line_1000" data-name="Line 1000" class="cls-2" transform="translate(15.854 16.849)" d="M0 0h3.914"/><path id="Line_1001" data-name="Line 1001" class="cls-2" transform="translate(15.854 20.678)" d="M0 0h3.914"/><g id="Group_8977" data-name="Group 8977"><g id="Group_8976" data-name="Group 8976" class="cls-4"><path id="Line_1002" data-name="Line 1002" class="cls-3" transform="translate(23.681 33.086)" d="M0 0v7.159"/><path id="Line_1003" data-name="Line 1003" class="cls-3" transform="translate(15.854 40.782)" d="M0 0h15.655"/><path id="Path_32739" data-name="Path 32739" class="cls-3" d="M33.875 14.667v4.787a11.63 11.63 0 01-11.74 11.488 11.63 11.63 0 01-11.741-11.488v-4.787" transform="translate(1.547 2.182)"/><path id="Path_32740" data-name="Path 32740" class="cls-3" d="M21.628 29.22a7.744 7.744 0 01-7.828-7.659V8.159a7.829 7.829 0 0115.653 0v13.4a7.744 7.744 0 01-7.825 7.661z" transform="translate(2.053 .074)"/></g></g></svg>