<svg xmlns="http://www.w3.org/2000/svg" width="155.671" height="18.225"><defs><style>.cls-1{fill:#fff}</style></defs><g id="Group_5330" transform="translate(-25.808 -57.554)"><path id="Path_18496" d="M269.409 75.779h-5.89a4.654 4.654 0 01-4.71-4.626V70.4c0-1.995.553-3.056 2.207-3.819a3.367 3.367 0 01-1.869-3.48v-1a4.549 4.549 0 014.668-4.541h5.3a4.549 4.549 0 014.668 4.541v1a3.429 3.429 0 01-1.867 3.48c1.655.807 2.207 1.909 2.207 3.819v.756a4.654 4.654 0 01-4.714 4.623zm1.569-5.425a2.327 2.327 0 00-2.335-2.334h-4.361a2.318 2.318 0 00-2.334 2.292v.29a2.326 2.326 0 002.334 2.334h4.361a2.327 2.327 0 002.335-2.334zm-.34-7.665A2.292 2.292 0 00268.3 60.4h-3.725a2.282 2.282 0 00-2.29 2.292v.155a2.318 2.318 0 002.29 2.333h3.725a2.327 2.327 0 002.334-2.333z" class="cls-1" transform="translate(-92.639)"/><path id="Path_18497" d="M246.057 75.541h-8.064a4.773 4.773 0 01-4.667-4.837V62.3a4.81 4.81 0 014.838-4.71h7.384a1.182 1.182 0 011.273 1.189v.467a1.182 1.182 0 01-1.273 1.188h-6.28a2.494 2.494 0 00-2.8 2.758v6.876c0 1.995 1.274 2.631 2.843 2.631h6.747a1.183 1.183 0 011.274 1.187v.468a1.183 1.183 0 01-1.275 1.187z" class="cls-1" transform="translate(-82.507 -.014)"/><path id="Path_18498" d="M225.874 57.589h-.594a1.277 1.277 0 00-1.273 1.273v15.406a1.251 1.251 0 001.275 1.273h.593a1.278 1.278 0 001.274-1.273V58.862a1.253 1.253 0 00-1.275-1.273z" class="cls-1" transform="translate(-78.802 -.014)"/><path id="Path_18499" d="M97.129 60.432h-4.768v13.836a1.276 1.276 0 01-1.272 1.273h-.595a1.25 1.25 0 01-1.272-1.273V60.432H84.5a1.219 1.219 0 01-1.316-1.188v-.467a1.207 1.207 0 011.273-1.189h12.629a1.219 1.219 0 011.314 1.19v.467a1.206 1.206 0 01-1.271 1.187z" class="cls-1" transform="translate(-22.811 -.014)"/><path id="Path_18500" d="M209.786 60.432h-4.768v13.836a1.276 1.276 0 01-1.273 1.273h-.594a1.25 1.25 0 01-1.273-1.273V60.432h-4.725a1.219 1.219 0 01-1.316-1.188v-.467a1.207 1.207 0 011.273-1.189h12.633a1.219 1.219 0 011.316 1.189v.467a1.206 1.206 0 01-1.273 1.188z" class="cls-1" transform="translate(-67.602 -.014)"/><path id="Path_18501" d="M59.784 75.541h5.633a4.81 4.81 0 004.838-4.71V58.862a1.249 1.249 0 00-1.273-1.273h-.595a1.276 1.276 0 00-1.272 1.273V69.94c0 1.57-1.246 2.758-3.284 2.758h-2.943a2.494 2.494 0 01-2.8-2.758V58.862a1.276 1.276 0 00-1.273-1.273h-.594a1.25 1.25 0 00-1.273 1.273v11.969a4.81 4.81 0 004.836 4.71z" class="cls-1" transform="translate(-11.585 -.014)"/><path id="Path_18502" d="M126.015 75.541h-.595a1.25 1.25 0 01-1.272-1.273v-6.362h-9.029v6.362a1.276 1.276 0 01-1.273 1.273h-.594a1.229 1.229 0 01-1.273-1.149V58.987a1.284 1.284 0 011.273-1.4h.594a1.276 1.276 0 011.273 1.273v6.2h9.029v-6.2a1.25 1.25 0 011.272-1.273h.595a1.309 1.309 0 011.272 1.4v15.405a1.257 1.257 0 01-1.272 1.149z" class="cls-1" transform="translate(-34.261 -.014)"/><path id="Path_18503" d="M36.278 57.589h-5.633a4.81 4.81 0 00-4.837 4.71v11.969a1.249 1.249 0 001.273 1.273h.593a1.276 1.276 0 001.273-1.273v-4.16h9.028v4.16a1.276 1.276 0 001.273 1.273h.594a1.25 1.25 0 001.273-1.273V62.3a4.81 4.81 0 00-4.837-4.711zm-7.331 9.684V63.19a2.494 2.494 0 012.8-2.758h2.942c2.038 0 3.284 1.187 3.284 2.758v4.083z" class="cls-1" transform="translate(0 -.014)"/><path id="Path_18504" d="M154.363 72.7h-7.2c-1.57 0-2.844-.636-2.844-2.631v-2.233h8.636a1.183 1.183 0 001.274-1.188v-.467a1.183 1.183 0 00-1.274-1.188h-8.636v-1.8a2.494 2.494 0 012.8-2.758h6.729a1.182 1.182 0 001.273-1.188v-.467a1.182 1.182 0 00-1.273-1.189h-7.833a4.81 4.81 0 00-4.838 4.71v8.4a4.773 4.773 0 004.667 4.837h8.513a1.182 1.182 0 001.273-1.188v-.468a1.182 1.182 0 00-1.267-1.182z" class="cls-1" transform="translate(-45.872 -.014)"/><path id="Path_18505" d="M179.048 57.589h-5.632a4.81 4.81 0 00-4.838 4.71v11.969a1.249 1.249 0 001.273 1.273h.593a1.275 1.275 0 001.272-1.273V63.19c0-1.57 1.248-2.758 3.284-2.758h2.943a2.494 2.494 0 012.8 2.758v11.078a1.276 1.276 0 001.273 1.273h.593a1.25 1.25 0 001.274-1.273V62.3a4.81 4.81 0 00-4.835-4.711z" class="cls-1" transform="translate(-56.764 -.014)"/></g></svg>